<?xml version="1.0" encoding="UTF-8"?>
<svg width="46px" height="53px" viewBox="0 0 46 53" version="1.1" xmlns="http://www.w3.org/2000/svg" xmlns:xlink="http://www.w3.org/1999/xlink">
    <!-- Generator: Sketch 50.2 (55047) - http://www.bohemiancoding.com/sketch -->
    <title>guy</title>
    <desc>Created with Sketch.</desc>
    <defs></defs>
    <g id="Page-1" stroke="none" stroke-width="1" fill="none" fill-rule="evenodd">
        <g id="guy" fill="#FFFFFF" fill-rule="nonzero">
            <path d="M0,48.103 L0.005,47.968 C0.092,46.662 1.308,41.893 3.652,33.66 C4.455,31.446 5.492,29.897 6.765,29.011 C8.038,28.126 9.725,27.683 11.829,27.683 L15.149,27.683 C16.062,28.652 17.196,29.475 18.552,30.153 C19.8909875,30.8266942 21.3700945,31.1748 22.869,31.169 C24.335,31.169 25.753,30.83 27.123,30.153 C28.493,29.475 29.648,28.652 30.588,27.683 L33.908,27.683 C36.067,27.683 37.782,28.126 39.055,29.011 C40.328,29.897 41.31,31.446 42.002,33.66 L42.892,36.762 C44.789,43.436 45.737,47.244 45.737,48.186 C45.737,49.376 45.253,50.109 44.285,50.386 C43.261,50.939 41.172,51.396 38.018,51.756 L36.565,42.998 L35.029,42.998 L35.029,51.838 C31.349,52.115 27.323,52.253 22.952,52.253 C18.635,52.253 14.582,52.115 10.791,51.838 L10.791,42.998 L9.546,42.998 L8.176,51.755 C5.354,51.534 3.196,51.077 1.702,50.385 C1.21007369,50.2237889 0.781447563,49.9116791 0.477,49.493 C0.169412972,49.0947594 0.00175352502,48.6061921 0,48.103 Z M9.712,13.323 C9.712,10.888 10.321,8.653 11.538,6.62 C12.7236379,4.61793879 14.4027592,2.95327788 16.415,1.785 C18.448,0.595 20.683,0 23.118,0 C25.498,0 27.697,0.595 29.717,1.785 C31.7134885,2.95199894 33.3721182,4.61821016 34.53,6.62 C35.72,8.654 36.315,10.888 36.315,13.323 C36.315,15.758 35.72,18.013 34.53,20.088 C33.3731218,22.1290107 31.7166334,23.8426194 29.716,25.068 C27.7367426,26.3018823 25.4483252,26.9495737 23.116,26.936 L22.951,26.936 C20.571,26.936 18.364,26.313 16.331,25.068 C14.321092,23.8473913 12.656703,22.1330879 11.496,20.088 C10.306,18.013 9.711,15.758 9.711,13.323 L9.712,13.323 Z" id="Shape"></path>
        </g>
    </g>
</svg>