<?xml version="1.0" encoding="UTF-8"?>
<svg viewBox="0 0 272.93 105.35" xmlns="http://www.w3.org/2000/svg">
<defs>
<style>.cls-1,.cls-2{fill:#0c95d3;}.cls-2{stroke:#0c95d3;stroke-linecap:round;stroke-miterlimit:10;stroke-width:5px;}</style>
</defs>
<g data-name="Layer 2">
<g data-name="Layer 4">
<g data-name="Layer 1">
<path class="cls-1" d="m16.62 0.25 5.47-0.25c5.16 1.17 9.71 3.34 12.91 7.69a1.51 1.51 0 0 0 1.3 0.46c3.49-1.42 6.83-0.92 10.21 0.87a6.12 6.12 0 0 1 0.49-0.66c5.9-7.45 14.19-8.59 20.91-2.61s7 12 0.37 18.92c-0.34 0.36-0.82 0.81-0.83 1.23-0.08 2.72 0 5.45 0 8.26h3c2.76 0 3.3-0.1 6.06 0 6 0.24 8.4 1.62 9.17 7.63a4.53 4.53 0 0 1 0 0.52v35.9a6.42 6.42 0 0 1-0.1 1.24 12.71 12.71 0 0 1-1.67 4.33c-2.07 2.58-2.42 3-8.78 3h-7.75v9a9.6 9.6 0 0 1-9.59 9.52q-23 0-46 0a10.53 10.53 0 0 1-2.43-0.27c-5.24-1.27-6-3.92-6-9.94v-66.16a6.09 6.09 0 0 0-1.21-3.37c-2.81-3.68-2.78-4.52 0.12-8a8.72 8.72 0 0 0 1.66-3.16c1.85-6.65 3.73-11.13 10.26-13.35 0.81-0.28 1.62-0.54 2.43-0.8zm44.92 88.26v-59.6h-33.54c0 1.9 0.07 3.62 0 5.33-0.23 5.12-4.15 5.93-9.12 5.88s-8.6-0.83-8.8-5.91c-0.08-1.42 0.09-2.85-0.08-4.21 0-0.5-0.67-0.93-1-1.4l-0.53 0.38v59.53zm-19.44-65.43c5.52 0 11 0.08 16.57-0.06a11.17 11.17 0 0 0 4.69-1.14 7.81 7.81 0 0 0 3.55-9.64 8.14 8.14 0 0 0-8.45-5.24 8 8 0 0 0-7.1 7.71c-0.12 3.09-1.14 4.58-3.28 4.77s-3.13-1-4.14-4c-0.39-1.16-1.61-2.66-2.64-2.83s-2.78 0.67-3.77 1.56c-1.41 1.19-2.82 2.19-4.53 1.11a7.11 7.11 0 0 1-2.33-3.08c-2.2-4.84-7.36-7.85-12.32-7a11.49 11.49 0 0 0-10 10.5 4.76 4.76 0 0 1-2.15 3.89 2.49 2.49 0 0 0-1 2.13 2.7 2.7 0 0 0 2 1.26c1.93 0.17 3.88 0 5.82 0.06 2.75 0 4.12-0.13 4.19 2.62v7.18c0 1.37-0.11 3 1.79 3s1.75-1.71 1.75-3.07v-7c0.05-3 1.27-2.73 4.23-2.74 5.77-0.01 11.44 0.01 17.12 0.01zm25.4 58h7.5c3.72 0 4.91-1.2 4.92-5v-19.48-12.54c0-2.57-1.2-4.14-3.37-4.23-3.7-0.14-5.19 0-9 0zm-59 13.24c-0.38 3.91 0.83 5.32 4.48 5.32q22.07 0 44.13 0c3.53 0 4.95-1.73 4.34-5.32z"/>
<path class="cls-1" d="m15.46 62.93v-11.64c0-2.72 1.3-4.23 3.51-4.26s3.67 1.6 3.68 4.38q0 11.75 0 23.5c0 2.78-1.43 4.4-3.69 4.37s-3.48-1.53-3.5-4.27c-0.03-4.01 0-8.01 0-12.08z"/>
<path class="cls-1" d="m31.6 63.21v-12.08c0-2.55 1.32-4 3.44-4.09s3.72 1.51 3.73 4.09q0.06 12.07 0 24.17c0 2.44-1.52 4-3.62 4s-3.52-1.46-3.55-4c-0.04-4.03 0-8.06 0-12.09z"/>
<path class="cls-1" d="m47.73 63v-11.86c0-2.66 1.4-4.17 3.62-4.13s3.54 1.58 3.56 4q0.06 12.09 0 24.17c0 2.46-1.48 4-3.58 4s-3.56-1.43-3.59-3.93c-0.05-4.01-0.01-8.12-0.01-12.25z"/>
</g>
<g data-name="Layer 2">
<line class="cls-2" x1="111.34" x2="111.34" y1="3.21" y2="102.69"/>
<line class="cls-2" x1="121.34" x2="121.34" y1="3.21" y2="102.69"/>
</g>
<g data-name="Layer 3">
<path class="cls-1" d="M157.14,14a4.49,4.49,0,0,1,9,0V27.65l16.55-16.43a5,5,0,0,1,3.79-1.75,4,4,0,0,1,4.13,4.14A4.5,4.5,0,0,1,189,17L177.48,27.71,190,43.44a4.79,4.79,0,0,1,1.22,3.15A4.33,4.33,0,0,1,186.69,51a4.52,4.52,0,0,1-3.79-2.16L171.25,33.54l-5.13,4.77v8.16a4.49,4.49,0,0,1-9,0Z"/>
<path class="cls-1" d="M197.53,46.3a4.19,4.19,0,0,1-1.69-3.38A4.13,4.13,0,0,1,200,38.78a4.3,4.3,0,0,1,2.57.82A17.22,17.22,0,0,0,213,43.27c3.67,0,5.88-1.46,5.88-3.85v-.11c0-2.28-1.39-3.44-8.21-5.19-8.22-2.1-13.52-4.37-13.52-12.47v-.12c0-7.4,5.94-12.29,14.28-12.29a23.67,23.67,0,0,1,12.93,3.61,4.15,4.15,0,0,1-2.21,7.69,4.3,4.3,0,0,1-2.28-.64,16.92,16.92,0,0,0-8.56-2.74c-3.44,0-5.25,1.57-5.25,3.56v.11c0,2.68,1.75,3.56,8.8,5.36,8.28,2.16,12.94,5.13,12.94,12.24v.12c0,8.1-6.18,12.64-15,12.64A26.32,26.32,0,0,1,197.53,46.3Z"/>
<path class="cls-1" d="M235.64,14a4.49,4.49,0,1,1,9,0V27.65l16.55-16.43A5.06,5.06,0,0,1,265,9.47a4,4,0,0,1,4.14,4.14A4.5,4.5,0,0,1,267.46,17L256,27.71,268.5,43.44a4.8,4.8,0,0,1,1.23,3.15A4.33,4.33,0,0,1,265.18,51a4.51,4.51,0,0,1-3.78-2.16L249.74,33.54l-5.13,4.77v8.16a4.49,4.49,0,1,1-9,0Z"/>
<path class="cls-1" d="M156.21,77v-.12c0-11.18,8.22-21.09,20.46-21.09a21.72,21.72,0,0,1,13.92,4.37,2.32,2.32,0,0,1-1.34,4.19,2.4,2.4,0,0,1-1.45-.58A17.34,17.34,0,0,0,176.49,60c-9,0-15.5,7.64-15.5,16.73v.11c0,9.74,6.24,17,16.14,17a19.15,19.15,0,0,0,11.77-4.08V79.57H178a2.07,2.07,0,0,1,0-4.13h13.11a2.32,2.32,0,0,1,2.27,2.33V90.18a3.29,3.29,0,0,1-1.57,2.8,24.92,24.92,0,0,1-14.8,5C164.14,97.93,156.21,88.61,156.21,77Z"/>
<path class="cls-1" d="M200.79,58.77a2.33,2.33,0,0,1,2.27-2.33h15.27c5,0,9,1.51,11.6,4.08a11.25,11.25,0,0,1,3.14,8v.12c0,6.7-4.54,10.6-10.89,11.82l10.14,13.06a2.51,2.51,0,0,1,.75,1.69,2.4,2.4,0,0,1-2.33,2.27,2.66,2.66,0,0,1-2.15-1.22L217.11,81.38H205.4V95.19a2.31,2.31,0,1,1-4.61,0Zm17.13,18.47c6.12,0,10.49-3.15,10.49-8.39v-.12c0-5-3.84-8-10.43-8H205.4V77.24Z"/>
<path class="cls-1" d="M240,58.77a2.33,2.33,0,0,1,2.27-2.33h15.09c4.67,0,8.34,1.34,10.67,3.61a9.06,9.06,0,0,1,2.62,6.53v.11c0,5.31-3.26,8-6.47,9.44,4.84,1.46,8.74,4.26,8.74,9.85v.12c0,7-5.88,11.13-14.8,11.13H242.28A2.33,2.33,0,0,1,240,94.9Zm16.61,15.85c5.53,0,9.38-2.51,9.38-7.29v-.11c0-4-3.21-6.64-9-6.64H244.55v14Zm1.63,18.47c6.18,0,10-2.74,10-7.28v-.12c0-4.43-3.73-7-10.84-7H244.55V93.09Z"/>
</g>
</g>
</g>
</svg>
