<?xml version="1.0" encoding="UTF-8"?>
<svg width="49px" height="48px" viewBox="0 0 49 48" version="1.1" xmlns="http://www.w3.org/2000/svg" xmlns:xlink="http://www.w3.org/1999/xlink">
    <!-- Generator: Sketch 50.2 (55047) - http://www.bohemiancoding.com/sketch -->
    <title>logout</title>
    <desc>Created with Sketch.</desc>
    <defs></defs>
    <g id="Page-1" stroke="none" stroke-width="1" fill="none" fill-rule="evenodd">
        <g id="logout" fill="#ffffff" fill-rule="nonzero">
            <path d="M24.96875,0.03125 C24.457,0.03125 23.953,0.20325 23.5625,0.59375 L16.5625,7.59375 C15.7815,8.37475 15.7815,9.6575 16.5625,10.4375 C17.3435,11.2185 18.62525,11.2185 19.40625,10.4375 L22.96875,6.84375 L22.96875,23.96875 C22.96875,25.07275 23.86475,25.96875 24.96875,25.96875 C26.07275,25.96875 26.96875,25.07275 26.96875,23.96875 L26.96875,6.84375 L30.5625,10.4375 C31.3435,11.2185 32.62525,11.2185 33.40625,10.4375 C33.79725,10.0475 33.96875,9.54325 33.96875,9.03125 C33.96875,8.51925 33.79725,7.98475 33.40625,7.59375 L26.40625,0.59375 C26.01575,0.20325 25.4805,0.03125 24.96875,0.03125 Z M10.125,5.96875 C9.613625,5.94825 9.0935,6.1255 8.6875,6.5 C3.7875,11.023 0.96875,17.44775 0.96875,24.09375 C0.96875,37.27075 11.73475,47.96875 24.96875,47.96875 C38.20175,47.96875 48.96875,37.27075 48.96875,24.09375 C48.96875,17.38875 46.26875,11.17975 41.34375,6.59375 C40.53575,5.84075 39.28425,5.8795 38.53125,6.6875 C37.78025,7.4955 37.816,8.747 38.625,9.5 C42.728,13.32 44.96875,18.51175 44.96875,24.09375 C44.96875,35.06475 35.99675,43.96875 24.96875,43.96875 C13.94075,43.96875 4.96875,35.06475 4.96875,24.09375 C4.96875,18.47875 7.26325,13.2615 11.40625,9.4375 C12.21725,8.6875 12.28125,7.438 11.53125,6.625 C11.15675,6.2195 10.636375,5.98925 10.125,5.96875 Z" id="Shape"></path>
        </g>
    </g>
</svg>
