<?xml version="1.0" encoding="UTF-8"?>
<svg xmlns="http://www.w3.org/2000/svg">
<defs>
  <style>.cls-1 {fill:#ffffff;}</style>
</defs>
<g data-name="Layer 1">
<path class="cls-1" d="M8.527 0c4.713 0 8.528 3.815 8.528 8.527 0 1.898-.619 3.65-1.666 5.066l4.244 4.243c.457.457.487 1.189.091 1.692l-.091.105c-.502.49-1.307.49-1.797 0l-4.243-4.244c-1.416 1.047-3.168 1.666-5.066 1.666C3.815 17.055 0 13.24 0 8.527 0 3.815 3.815 0 8.527 0zm0 2.543c-3.301 0-5.996 2.683-5.996 5.996 0 3.301 2.695 5.996 5.996 5.996 3.302 0 5.996-2.695 5.996-5.996 0-3.301-2.694-5.996-5.996-5.996z"/>
</g>
</svg>
